<svg width="224" height="94" viewBox="0 0 224 94" fill="none" xmlns="http://www.w3.org/2000/svg">
<g clip-path="url(#clip0_217_906)">
<mask id="path-1-inside-1_217_906" fill="white">
<path d="M24.5362 30.2831H19.1667C19.4094 29.8074 19.7903 29.4058 20.2653 29.1247C20.7403 28.8437 21.2902 28.6945 21.8514 28.6945C22.4127 28.6945 22.9625 28.8437 23.4376 29.1247C23.9126 29.4058 24.2934 29.8074 24.5362 30.2831ZM33.1273 28.6893C33.129 28.0348 33.1802 27.3813 33.2808 26.7337C32.8639 26.7968 32.4661 26.9426 32.1137 27.1615C31.7614 27.3803 31.4627 27.6671 31.2373 28.0028C31.012 28.3385 30.8652 28.7155 30.8067 29.1087C30.7483 29.5018 30.7795 29.9022 30.8983 30.2831H33.2317C33.1657 29.7541 33.1329 29.2219 33.1335 28.6893H33.1273ZM21.0705 18.3742C19.0761 16.4992 16.3976 14.5175 14.035 14.5175H13.8386L13.9629 16.8252C15.0997 16.7733 16.933 17.8205 18.9995 19.7097C19.1294 19.828 19.2567 19.9468 19.3814 20.066C19.7204 19.9972 20.0656 19.9591 20.4124 19.9521C20.5379 19.3943 20.7624 18.8604 21.0766 18.3727L21.0705 18.3742ZM24.1787 16.104C24.5088 15.7395 24.8044 15.3486 25.0623 14.9358C25.4528 14.3131 25.7575 13.6462 25.9691 12.9513C26.1801 12.2608 26.296 11.5478 26.3143 10.8296C26.3305 10.1614 26.2588 9.49385 26.101 8.84214C26.0313 8.55832 25.9458 8.27815 25.8447 8.0028C25.7609 7.7751 25.6658 7.55126 25.5595 7.33205C25.4853 7.18018 25.405 7.03106 25.3185 6.88504C25.2895 6.83312 25.2587 6.79127 25.2419 6.76393L25.2142 6.72197L25.1683 6.74355C25.1376 6.75806 25.09 6.77976 25.0363 6.80854C24.8792 6.88968 24.7256 6.97676 24.576 7.06957C24.3628 7.20259 24.1579 7.34707 23.9624 7.50231C23.7229 7.68696 23.494 7.88336 23.2766 8.09069C22.7792 8.56771 22.3464 9.1006 21.9879 9.67729C21.6033 10.298 21.3048 10.9625 21.0997 11.6545C20.8887 12.3485 20.7721 13.0648 20.7529 13.7863C20.7378 14.4545 20.8094 15.1219 20.9662 15.7738C21.0923 16.2909 21.2733 16.7949 21.5062 17.2781C21.5661 17.405 21.6244 17.5131 21.6766 17.604C22.3484 16.8945 23.2168 16.3747 24.1848 16.1026L24.1787 16.104ZM67.8509 10.8398C67.8218 10.8238 67.7756 10.7978 67.7205 10.7705C67.5637 10.6911 67.403 10.6189 67.2388 10.5542C67.0347 10.4733 66.7924 10.3839 66.5193 10.3018C66.224 10.2134 65.9239 10.1397 65.6203 10.0811C64.9234 9.94887 64.2118 9.898 63.5017 9.92969C62.738 9.96385 61.9822 10.0899 61.2526 10.3046C60.5222 10.5172 59.8232 10.8158 59.1724 11.1931C58.5675 11.545 58.0106 11.9649 57.5139 12.4435L57.4448 12.5128C58.1508 13.2981 58.6964 14.1993 59.0541 15.1709C59.5326 15.225 60.0149 15.2419 60.4963 15.2214C61.2601 15.1875 62.0163 15.0629 62.7469 14.8507C63.478 14.6413 64.1777 14.3446 64.8286 13.968C65.4341 13.617 65.9911 13.197 66.4871 12.7176C66.7038 12.5082 66.9087 12.2882 67.1007 12.0585C67.2772 11.8451 67.4259 11.646 67.5441 11.4671C67.6622 11.2882 67.7527 11.1412 67.8111 11.0344C67.8417 10.9825 67.8632 10.9364 67.877 10.9075L67.9 10.8628L67.8509 10.8398ZM56.9279 2.91879C56.8727 2.71531 56.819 2.52358 56.8021 2.43701L54.3812 2.85524C54.4134 3.02119 54.4686 3.22012 54.5439 3.49422C54.9028 4.80096 55.7298 7.81239 54.7326 10.4763C55.4868 10.8451 56.181 11.3133 56.7943 11.8666C58.4252 8.39801 57.3697 4.54855 56.9218 2.91867L56.9279 2.91879ZM59.5389 28.6893C59.5421 25.7917 58.3524 23.0053 56.219 20.914C56.7117 20.1115 57.0016 19.2132 57.0661 18.2886C57.1307 17.364 56.9682 16.4378 56.5912 15.5816C56.2142 14.7254 55.6329 13.9622 54.8922 13.351C54.1514 12.7397 53.271 12.2968 52.3192 12.0565C51.3673 11.8161 50.3693 11.7848 49.4025 11.9649C48.4357 12.1449 47.5258 12.5316 46.7433 13.095C45.9608 13.6584 45.3266 14.3835 44.8897 15.2141C44.4528 16.0447 44.2249 16.9586 44.2236 17.8852C41.4525 18.6405 39.065 20.3116 37.5007 22.5909C35.9364 24.8701 35.3008 27.6039 35.7108 30.2889H59.4132C59.4952 29.7591 59.5372 29.2246 59.5389 28.6893ZM28.327 29.4984C28.3266 28.2588 28.8078 27.0617 29.6801 26.1322C29.3945 25.6225 28.9489 25.2079 28.4038 24.9448C27.8587 24.6817 27.2406 24.5828 26.6336 24.6616C26.0266 24.7404 25.4602 24.993 25.0113 25.3852C24.5625 25.7773 24.253 26.29 24.125 26.8533C24.861 27.1738 25.5117 27.6445 26.03 28.231C26.5483 28.8176 26.9211 29.5053 27.1212 30.2443C27.5476 30.232 27.9662 30.1336 28.3484 29.9556C28.3342 29.8036 28.3271 29.6511 28.327 29.4984ZM18.2017 27.7043C17.8286 27.0601 17.2019 26.5789 16.456 26.364C15.71 26.1492 14.9041 26.2177 14.2112 26.5549C13.5184 26.8921 12.9936 27.4712 12.7496 28.1678C12.5056 28.8645 12.5617 29.6234 12.9059 30.2817H16.5648C16.8236 29.2882 17.3932 28.3904 18.2001 27.7043H18.2017ZM28.3853 19.7082C28.1036 19.1983 27.662 18.7821 27.1203 18.5159C26.5786 18.2498 25.963 18.1467 25.3568 18.2205C24.7507 18.2944 24.1834 18.5416 23.7317 18.9287C23.28 19.3159 22.9658 19.8242 22.8317 20.3848C23.8911 20.8522 24.7633 21.6266 25.3201 22.5943C25.7915 22.4454 26.2825 22.3585 26.7792 22.3361C27.0194 21.3279 27.5787 20.4117 28.3836 19.7082H28.3853ZM32.084 20.6458C31.4219 20.6446 30.7782 20.8506 30.2543 21.2313C29.7305 21.6121 29.3563 22.1459 29.1907 22.7486C30.2233 23.1682 31.0933 23.8768 31.6821 24.7779C32.3421 24.5186 33.0503 24.3853 33.7656 24.3857H33.8745C34.126 23.6756 34.4405 22.9866 34.8148 22.326C34.5826 21.8268 34.2006 21.402 33.7157 21.1036C33.2307 20.8052 32.6638 20.6461 32.0842 20.6458H32.084ZM23.2168 23.8115C22.9493 23.3018 22.5232 22.8806 21.9951 22.604C21.467 22.3273 20.8619 22.2082 20.2601 22.2625C19.6583 22.3168 19.0883 22.5419 18.6258 22.908C18.1633 23.2741 17.8303 23.7638 17.6708 24.312C18.8095 24.7637 19.752 25.5643 20.3449 26.5837C20.7942 26.4622 21.2583 26.3957 21.7257 26.386C21.9445 25.4094 22.4628 24.5143 23.2168 23.8115Z"/>
</mask>
<path d="M24.5362 30.2831H19.1667C19.4094 29.8074 19.7903 29.4058 20.2653 29.1247C20.7403 28.8437 21.2902 28.6945 21.8514 28.6945C22.4127 28.6945 22.9625 28.8437 23.4376 29.1247C23.9126 29.4058 24.2934 29.8074 24.5362 30.2831ZM33.1273 28.6893C33.129 28.0348 33.1802 27.3813 33.2808 26.7337C32.8639 26.7968 32.4661 26.9426 32.1137 27.1615C31.7614 27.3803 31.4627 27.6671 31.2373 28.0028C31.012 28.3385 30.8652 28.7155 30.8067 29.1087C30.7483 29.5018 30.7795 29.9022 30.8983 30.2831H33.2317C33.1657 29.7541 33.1329 29.2219 33.1335 28.6893H33.1273ZM21.0705 18.3742C19.0761 16.4992 16.3976 14.5175 14.035 14.5175H13.8386L13.9629 16.8252C15.0997 16.7733 16.933 17.8205 18.9995 19.7097C19.1294 19.828 19.2567 19.9468 19.3814 20.066C19.7204 19.9972 20.0656 19.9591 20.4124 19.9521C20.5379 19.3943 20.7624 18.8604 21.0766 18.3727L21.0705 18.3742ZM24.1787 16.104C24.5088 15.7395 24.8044 15.3486 25.0623 14.9358C25.4528 14.3131 25.7575 13.6462 25.9691 12.9513C26.1801 12.2608 26.296 11.5478 26.3143 10.8296C26.3305 10.1614 26.2588 9.49385 26.101 8.84214C26.0313 8.55832 25.9458 8.27815 25.8447 8.0028C25.7609 7.7751 25.6658 7.55126 25.5595 7.33205C25.4853 7.18018 25.405 7.03106 25.3185 6.88504C25.2895 6.83312 25.2587 6.79127 25.2419 6.76393L25.2142 6.72197L25.1683 6.74355C25.1376 6.75806 25.09 6.77976 25.0363 6.80854C24.8792 6.88968 24.7256 6.97676 24.576 7.06957C24.3628 7.20259 24.1579 7.34707 23.9624 7.50231C23.7229 7.68696 23.494 7.88336 23.2766 8.09069C22.7792 8.56771 22.3464 9.1006 21.9879 9.67729C21.6033 10.298 21.3048 10.9625 21.0997 11.6545C20.8887 12.3485 20.7721 13.0648 20.7529 13.7863C20.7378 14.4545 20.8094 15.1219 20.9662 15.7738C21.0923 16.2909 21.2733 16.7949 21.5062 17.2781C21.5661 17.405 21.6244 17.5131 21.6766 17.604C22.3484 16.8945 23.2168 16.3747 24.1848 16.1026L24.1787 16.104ZM67.8509 10.8398C67.8218 10.8238 67.7756 10.7978 67.7205 10.7705C67.5637 10.6911 67.403 10.6189 67.2388 10.5542C67.0347 10.4733 66.7924 10.3839 66.5193 10.3018C66.224 10.2134 65.9239 10.1397 65.6203 10.0811C64.9234 9.94887 64.2118 9.898 63.5017 9.92969C62.738 9.96385 61.9822 10.0899 61.2526 10.3046C60.5222 10.5172 59.8232 10.8158 59.1724 11.1931C58.5675 11.545 58.0106 11.9649 57.5139 12.4435L57.4448 12.5128C58.1508 13.2981 58.6964 14.1993 59.0541 15.1709C59.5326 15.225 60.0149 15.2419 60.4963 15.2214C61.2601 15.1875 62.0163 15.0629 62.7469 14.8507C63.478 14.6413 64.1777 14.3446 64.8286 13.968C65.4341 13.617 65.9911 13.197 66.4871 12.7176C66.7038 12.5082 66.9087 12.2882 67.1007 12.0585C67.2772 11.8451 67.4259 11.646 67.5441 11.4671C67.6622 11.2882 67.7527 11.1412 67.8111 11.0344C67.8417 10.9825 67.8632 10.9364 67.877 10.9075L67.9 10.8628L67.8509 10.8398ZM56.9279 2.91879C56.8727 2.71531 56.819 2.52358 56.8021 2.43701L54.3812 2.85524C54.4134 3.02119 54.4686 3.22012 54.5439 3.49422C54.9028 4.80096 55.7298 7.81239 54.7326 10.4763C55.4868 10.8451 56.181 11.3133 56.7943 11.8666C58.4252 8.39801 57.3697 4.54855 56.9218 2.91867L56.9279 2.91879ZM59.5389 28.6893C59.5421 25.7917 58.3524 23.0053 56.219 20.914C56.7117 20.1115 57.0016 19.2132 57.0661 18.2886C57.1307 17.364 56.9682 16.4378 56.5912 15.5816C56.2142 14.7254 55.6329 13.9622 54.8922 13.351C54.1514 12.7397 53.271 12.2968 52.3192 12.0565C51.3673 11.8161 50.3693 11.7848 49.4025 11.9649C48.4357 12.1449 47.5258 12.5316 46.7433 13.095C45.9608 13.6584 45.3266 14.3835 44.8897 15.2141C44.4528 16.0447 44.2249 16.9586 44.2236 17.8852C41.4525 18.6405 39.065 20.3116 37.5007 22.5909C35.9364 24.8701 35.3008 27.6039 35.7108 30.2889H59.4132C59.4952 29.7591 59.5372 29.2246 59.5389 28.6893ZM28.327 29.4984C28.3266 28.2588 28.8078 27.0617 29.6801 26.1322C29.3945 25.6225 28.9489 25.2079 28.4038 24.9448C27.8587 24.6817 27.2406 24.5828 26.6336 24.6616C26.0266 24.7404 25.4602 24.993 25.0113 25.3852C24.5625 25.7773 24.253 26.29 24.125 26.8533C24.861 27.1738 25.5117 27.6445 26.03 28.231C26.5483 28.8176 26.9211 29.5053 27.1212 30.2443C27.5476 30.232 27.9662 30.1336 28.3484 29.9556C28.3342 29.8036 28.3271 29.6511 28.327 29.4984ZM18.2017 27.7043C17.8286 27.0601 17.2019 26.5789 16.456 26.364C15.71 26.1492 14.9041 26.2177 14.2112 26.5549C13.5184 26.8921 12.9936 27.4712 12.7496 28.1678C12.5056 28.8645 12.5617 29.6234 12.9059 30.2817H16.5648C16.8236 29.2882 17.3932 28.3904 18.2001 27.7043H18.2017ZM28.3853 19.7082C28.1036 19.1983 27.662 18.7821 27.1203 18.5159C26.5786 18.2498 25.963 18.1467 25.3568 18.2205C24.7507 18.2944 24.1834 18.5416 23.7317 18.9287C23.28 19.3159 22.9658 19.8242 22.8317 20.3848C23.8911 20.8522 24.7633 21.6266 25.3201 22.5943C25.7915 22.4454 26.2825 22.3585 26.7792 22.3361C27.0194 21.3279 27.5787 20.4117 28.3836 19.7082H28.3853ZM32.084 20.6458C31.4219 20.6446 30.7782 20.8506 30.2543 21.2313C29.7305 21.6121 29.3563 22.1459 29.1907 22.7486C30.2233 23.1682 31.0933 23.8768 31.6821 24.7779C32.3421 24.5186 33.0503 24.3853 33.7656 24.3857H33.8745C34.126 23.6756 34.4405 22.9866 34.8148 22.326C34.5826 21.8268 34.2006 21.402 33.7157 21.1036C33.2307 20.8052 32.6638 20.6461 32.0842 20.6458H32.084ZM23.2168 23.8115C22.9493 23.3018 22.5232 22.8806 21.9951 22.604C21.467 22.3273 20.8619 22.2082 20.2601 22.2625C19.6583 22.3168 19.0883 22.5419 18.6258 22.908C18.1633 23.2741 17.8303 23.7638 17.6708 24.312C18.8095 24.7637 19.752 25.5643 20.3449 26.5837C20.7942 26.4622 21.2583 26.3957 21.7257 26.386C21.9445 25.4094 22.4628 24.5143 23.2168 23.8115Z" stroke="#FFF7EE" stroke-width="18" mask="url(#path-1-inside-1_217_906)"/>
<path d="M73.9424 62.881C73.4646 62.9405 73.151 62.8514 73.0016 62.6136C72.8521 62.3462 72.7776 61.9451 72.7776 61.4104C72.7776 60.7569 72.7926 60.1626 72.8224 59.6279L72.8672 55.8846L72.9568 50.6262C73.136 44.3278 73.2256 39.4113 73.2256 35.8758C73.2256 34.8063 73.2105 34.1676 73.1808 33.9596C73.1209 33.306 73.0912 32.9198 73.0912 32.801C73.0912 32.0285 73.2553 31.6423 73.584 31.6423C73.7334 31.6423 74.032 31.6572 74.48 31.6869C74.9577 31.7166 75.615 31.7315 76.4512 31.7315C76.6902 31.7315 77.3024 31.7166 78.288 31.6869C79.2736 31.6572 80.304 31.6423 81.3792 31.6423C82.9622 31.6423 84.4704 31.6869 85.904 31.776C87.9648 31.8948 89.6672 32.7267 91.0112 34.2715C92.3849 35.8163 93.072 38.1336 93.072 41.2234C93.072 43.2437 92.639 44.8479 91.7728 46.0362C90.9065 47.2244 89.9062 48.0565 88.7712 48.5317C87.6361 48.9773 86.6358 49.2001 85.7696 49.2001C84.9632 49.2001 83.6041 49.2893 81.6928 49.4675C80.5878 49.5862 79.6918 49.6607 79.0048 49.6903C78.9449 52.4236 78.9152 54.2803 78.9152 55.2607C78.9152 59.1227 78.96 61.2172 79.0496 61.5441C79.1094 61.8411 79.0496 62.1084 78.8704 62.3462C78.7209 62.5541 78.512 62.7027 78.2432 62.7918C78.0041 62.8514 77.7801 62.8364 77.5712 62.7473C77.4816 62.7177 77.2278 62.7027 76.8096 62.7027C75.9136 62.7027 74.9577 62.7623 73.9424 62.881ZM84.5152 45.9916C85.6201 45.9916 86.6505 45.6647 87.6064 45.0112C88.5622 44.3577 89.04 43.1841 89.04 41.4907C89.04 39.6786 88.6665 38.3118 87.92 37.391C87.1734 36.4402 86.0832 35.8313 84.6496 35.5639C82.4096 35.1182 80.6473 34.94 79.3632 35.0291C79.3632 35.8608 79.3481 36.4847 79.3184 36.9008C79.2585 38.5646 79.184 39.7528 79.0944 40.4658C78.975 41.5057 78.9449 42.679 79.0048 43.9863L79.0944 45.7242L81.2 45.8579C82.0064 45.947 83.1113 45.9916 84.5152 45.9916Z" fill="#FFF7EE"/>
<path d="M104.398 63.9952C99.918 63.9952 96.9314 62.4951 95.438 59.4944C93.9445 56.4641 93.198 53.226 93.198 49.7797C93.198 46.4524 93.7058 43.7933 94.7212 41.8029C95.7365 39.7826 96.9612 38.3715 98.3948 37.5694C99.8581 36.7673 101.322 36.3662 102.785 36.3662C105.533 36.3662 107.594 37.1534 108.968 38.728C110.371 40.3027 111.267 42.1444 111.656 44.2539C112.074 46.3333 112.283 48.5914 112.283 51.0274C112.283 51.2353 112.133 51.369 111.835 51.4285C110.849 51.4285 108.579 51.5918 105.025 51.9187C104.458 51.9782 103.771 52.0524 102.964 52.1415C102.158 52.201 101.262 52.2602 100.276 52.3198C100.545 55.2014 102.113 56.6424 104.98 56.6424C105.936 56.6424 106.668 56.5532 107.176 56.375C107.713 56.1967 108.564 55.8253 109.729 55.2609C109.938 55.2609 110.117 55.3796 110.267 55.6174C110.446 55.8552 110.685 56.3454 110.984 57.088C111.073 57.2366 111.178 57.5186 111.297 57.9347C111.447 58.3507 111.581 58.6627 111.7 58.8705C112.268 60.2965 112.537 61.0391 112.507 61.0987C112.447 61.2174 112.283 61.381 112.014 61.5889C111.387 62.2127 110.371 62.7625 108.968 63.2377C107.594 63.7428 106.071 63.9952 104.398 63.9952ZM105.473 49.2895C105.234 45.9027 104.413 44.2093 103.009 44.2093C102.173 44.2093 101.531 44.6995 101.083 45.6799C100.635 46.6307 100.366 47.9822 100.276 49.7351L105.473 49.2895Z" fill="#FFF7EE"/>
<path d="M116.647 63.0149C116.199 63.0149 115.975 62.8366 115.975 62.4801V50.2253L116.289 37.5694C116.289 37.2425 116.363 37.0643 116.513 37.0347C116.632 36.9751 116.976 36.9455 117.543 36.9455C118.678 36.9455 119.305 36.9751 119.425 37.0347C119.514 37.0347 119.589 37.0942 119.649 37.2129C119.738 37.302 119.783 37.3762 119.783 37.4357L119.738 38.9954L121.71 38.1933C124.666 36.916 126.369 36.2771 126.817 36.2771H126.862C127.071 36.2771 127.235 36.5445 127.354 37.0792C127.354 37.7327 127.369 38.2379 127.399 38.5944C127.399 38.9213 127.429 39.2332 127.489 39.5302L127.534 40.5106V40.5997C127.534 40.7184 127.489 40.8375 127.399 40.9562C127.31 41.0749 127.235 41.1494 127.175 41.179C126.219 41.4168 125.189 41.6097 124.084 41.7583C123.009 41.8771 122.382 41.9516 122.202 41.9812L119.649 42.3377V50.5818L119.738 52.8991C119.738 53.7608 119.723 54.4884 119.694 55.0827C119.604 56.0631 119.559 57.1921 119.559 58.4695V59.9846C119.559 61.4701 119.499 62.391 119.38 62.7475C119.38 62.9553 119.141 63.0594 118.663 63.0594L116.647 63.0149Z" fill="#FFF7EE"/>
<path d="M133.854 34.9401C133.048 34.9401 132.301 34.6282 131.614 34.0043C130.927 33.3804 130.584 32.608 130.584 31.687C130.584 30.8849 130.882 30.1719 131.48 29.548C132.077 28.8944 132.794 28.5676 133.63 28.5676C134.616 28.5676 135.496 28.8201 136.273 29.3252C137.05 29.8303 137.438 30.5284 137.438 31.4197C137.438 32.1624 137.244 32.8011 136.856 33.3359C136.467 33.8706 135.989 34.2717 135.422 34.5391C134.884 34.8064 134.362 34.9401 133.854 34.9401ZM129.822 63.3713C129.404 63.4009 129.135 63.3267 129.016 63.1485C128.926 62.9702 128.866 62.6733 128.836 62.2572C128.777 62.0494 128.807 61.5738 128.926 60.8312C128.926 60.653 128.941 60.4006 128.971 60.0736C129.031 59.7171 129.06 59.4052 129.06 59.1378C129.06 58.93 129.165 57.2662 129.374 54.1468C129.404 53.315 129.448 52.5721 129.508 51.9186C129.568 51.2651 129.598 50.76 129.598 50.4035L129.688 46.7939L129.777 43.4517L129.867 41.4463L129.956 40.154V38.5943C129.956 38.0595 130.031 37.6881 130.18 37.4802C130.33 37.2724 130.539 37.1683 130.808 37.1683C130.927 37.1683 131.032 37.1832 131.121 37.2128C131.39 37.2424 131.688 37.2574 132.017 37.2574C132.376 37.2278 132.704 37.2128 133.003 37.2128H134.436C135.392 37.2128 136.019 37.2278 136.318 37.2574C136.647 37.287 136.871 37.3465 136.99 37.4357C137.139 37.5248 137.214 37.6585 137.214 37.8367C137.214 37.9854 137.199 38.1337 137.169 38.2824C137.139 38.4011 137.109 38.5201 137.08 38.6389C136.781 40.5105 136.616 42.6495 136.587 45.0559C136.557 45.7094 136.542 46.6898 136.542 47.9971L136.587 52.4534C136.616 52.8099 136.632 53.1814 136.632 53.5674L136.676 55.038C136.736 56.2858 136.766 57.2366 136.766 57.8901C136.766 58.3357 136.751 58.618 136.721 58.7368C136.691 58.8259 136.676 59.1082 136.676 59.5835L136.721 61.5442C136.751 61.8711 136.766 62.2572 136.766 62.7029C136.796 63.208 136.378 63.4308 135.512 63.3713H129.822Z" fill="#FFF7EE"/>
<path d="M147.774 62.9257C147.625 62.9257 147.281 62.8962 146.744 62.8366C146.475 62.807 145.922 62.7921 145.086 62.7921L141.816 62.8366C141.487 62.807 141.278 62.7475 141.189 62.6584C141.129 62.5692 141.099 62.4505 141.099 62.3019C141.099 62.1236 141.099 62.0049 141.099 61.9454L141.054 59.5835C141.054 59.1675 141.039 58.811 141.009 58.514L140.965 55.4837C140.965 55.0381 140.98 54.5925 141.009 54.1468C141.069 53.6716 141.099 53.3297 141.099 53.1219C141.189 52.4385 141.233 51.6663 141.233 50.8046L141.189 45.7244L141.233 42.7833C141.293 41.4168 141.323 40.3769 141.323 39.6639C141.323 38.0001 141.293 35.9502 141.233 33.5142C141.233 32.9794 141.293 32.6229 141.413 32.4447C141.562 32.2664 141.771 32.1773 142.04 32.1773C142.219 32.1773 142.398 32.1922 142.577 32.2219C142.786 32.2516 143.025 32.2664 143.294 32.2664L146.699 32.1773L149.566 32.0882C149.925 32.0882 150.328 32.0733 150.776 32.0436C151.224 32.0139 151.672 31.9842 152.12 31.9545C153.135 31.8654 153.972 31.8208 154.629 31.8208L158.392 31.8654C159.079 31.8654 159.422 32.0882 159.422 32.5338V34.762C159.422 35.0293 159.362 35.1926 159.243 35.2521C159.153 35.2817 158.944 35.2967 158.616 35.2967C158.228 35.2967 157.884 35.2817 157.585 35.2521L154.718 35.2076C153.583 35.2076 152.478 35.2671 151.403 35.3858L149.208 35.5195L149.073 36.3217C149.014 36.9751 148.984 37.4953 148.984 37.8814L148.939 41.8475L148.894 44.1202V45.1897C149.521 45.1897 149.984 45.1747 150.283 45.1451L152.433 45.1006L154.225 45.056C154.644 45.0264 155.226 45.0114 155.973 45.0114C156.45 45.0114 156.764 45.071 156.913 45.1897C157.093 45.3084 157.182 45.5016 157.182 45.769L157.137 47.2396C157.137 47.4774 157.063 47.6406 156.913 47.7298C156.794 47.8189 156.525 47.8635 156.107 47.8635C155.569 47.8635 155.121 47.8485 154.763 47.8189L152.971 47.7743H148.805C148.805 48.5469 148.82 49.1112 148.849 49.4677L148.894 52.2752L148.849 54.4588C148.79 55.4096 148.76 56.1372 148.76 56.6424L148.805 61.9008C148.805 62.2869 148.715 62.5543 148.536 62.7029C148.386 62.8516 148.133 62.9257 147.774 62.9257Z" fill="#FFF7EE"/>
<path d="M170.135 63.9952C165.655 63.9952 162.668 62.4951 161.175 59.4944C159.682 56.4641 158.935 53.226 158.935 49.7797C158.935 46.4524 159.443 43.7933 160.458 41.8029C161.474 39.7826 162.698 38.3715 164.132 37.5694C165.595 36.7673 167.059 36.3662 168.522 36.3662C171.27 36.3662 173.331 37.1534 174.705 38.728C176.108 40.3027 177.004 42.1444 177.393 44.2539C177.811 46.3333 178.02 48.5914 178.02 51.0274C178.02 51.2353 177.87 51.369 177.572 51.4285C176.586 51.4285 174.316 51.5918 170.762 51.9187C170.195 51.9782 169.508 52.0524 168.701 52.1415C167.895 52.201 166.999 52.2602 166.013 52.3198C166.282 55.2014 167.85 56.6424 170.717 56.6424C171.673 56.6424 172.405 56.5532 172.913 56.375C173.45 56.1967 174.301 55.8253 175.466 55.2609C175.675 55.2609 175.854 55.3796 176.004 55.6174C176.183 55.8552 176.422 56.3454 176.721 57.088C176.81 57.2366 176.915 57.5186 177.034 57.9347C177.184 58.3507 177.318 58.6627 177.437 58.8705C178.005 60.2965 178.274 61.0391 178.244 61.0987C178.184 61.2174 178.02 61.381 177.751 61.5889C177.124 62.2127 176.108 62.7625 174.705 63.2377C173.331 63.7428 171.808 63.9952 170.135 63.9952ZM171.21 49.2895C170.971 45.9027 170.15 44.2093 168.746 44.2093C167.91 44.2093 167.268 44.6995 166.82 45.6799C166.372 46.6307 166.103 47.9822 166.013 49.7351L171.21 49.2895Z" fill="#FFF7EE"/>
<path d="M185.475 34.9401C184.669 34.9401 183.923 34.6282 183.235 34.0043C182.548 33.3804 182.205 32.608 182.205 31.687C182.205 30.8849 182.504 30.1719 183.101 29.548C183.699 28.8944 184.415 28.5676 185.251 28.5676C186.237 28.5676 187.118 28.8201 187.895 29.3252C188.671 29.8303 189.059 30.5284 189.059 31.4197C189.059 32.1624 188.865 32.8011 188.477 33.3359C188.089 33.8706 187.611 34.2717 187.043 34.5391C186.506 34.8064 185.983 34.9401 185.475 34.9401ZM181.443 63.3713C181.025 63.4009 180.756 63.3267 180.637 63.1485C180.547 62.9702 180.488 62.6733 180.458 62.2572C180.398 62.0494 180.428 61.5738 180.547 60.8312C180.547 60.653 180.563 60.4006 180.592 60.0736C180.652 59.7171 180.682 59.4052 180.682 59.1378C180.682 58.93 180.787 57.2662 180.995 54.1468C181.025 53.315 181.07 52.5721 181.13 51.9186C181.19 51.2651 181.219 50.76 181.219 50.4035L181.309 46.7939L181.399 43.4517L181.488 41.4463L181.578 40.154V38.5943C181.578 38.0595 181.652 37.6881 181.802 37.4802C181.951 37.2724 182.16 37.1683 182.429 37.1683C182.548 37.1683 182.653 37.1832 182.743 37.2128C183.011 37.2424 183.31 37.2574 183.639 37.2574C183.997 37.2278 184.326 37.2128 184.624 37.2128H186.058C187.014 37.2128 187.641 37.2278 187.939 37.2574C188.268 37.287 188.492 37.3465 188.611 37.4357C188.761 37.5248 188.835 37.6585 188.835 37.8367C188.835 37.9854 188.82 38.1337 188.791 38.2824C188.761 38.4011 188.731 38.5201 188.701 38.6389C188.403 40.5105 188.238 42.6495 188.208 45.0559C188.179 45.7094 188.163 46.6898 188.163 47.9971L188.208 52.4534C188.238 52.8099 188.253 53.1814 188.253 53.5674L188.298 55.038C188.358 56.2858 188.387 57.2366 188.387 57.8901C188.387 58.3357 188.372 58.618 188.343 58.7368C188.313 58.8259 188.298 59.1082 188.298 59.5835L188.343 61.5442C188.372 61.8711 188.387 62.2572 188.387 62.7029C188.417 63.208 187.999 63.4308 187.133 63.3713H181.443Z" fill="#FFF7EE"/>
<path d="M193.437 63.0149C192.989 63.0149 192.765 62.8366 192.765 62.4801V50.2253L193.079 37.5694C193.079 37.2425 193.153 37.0643 193.303 37.0347C193.422 36.9751 193.766 36.9455 194.333 36.9455C195.468 36.9455 196.096 36.9751 196.215 37.0347C196.305 37.0347 196.379 37.0942 196.439 37.2129C196.529 37.302 196.573 37.3762 196.573 37.4357L196.529 38.9954L198.5 38.1933C201.457 36.916 203.159 36.2771 203.607 36.2771H203.652C203.861 36.2771 204.025 36.5445 204.145 37.0792C204.145 37.7327 204.16 38.2379 204.189 38.5944C204.189 38.9213 204.219 39.2332 204.279 39.5302L204.324 40.5106V40.5997C204.324 40.7184 204.279 40.8375 204.189 40.9562C204.1 41.0749 204.025 41.1494 203.965 41.179C203.009 41.4168 201.979 41.6097 200.874 41.7583C199.799 41.8771 199.172 41.9516 198.993 41.9812L196.439 42.3377V50.5818L196.529 52.8991C196.529 53.7608 196.513 54.4884 196.484 55.0827C196.394 56.0631 196.349 57.1921 196.349 58.4695V59.9846C196.349 61.4701 196.289 62.391 196.17 62.7475C196.17 62.9553 195.931 63.0594 195.453 63.0594L193.437 63.0149Z" fill="#FFF7EE"/>
<path d="M211.693 63.5049C209.513 63.5049 207.766 63.0742 206.452 62.2126C205.137 61.3509 204.48 59.8211 204.48 57.6226C204.63 56.1966 205.69 55.142 207.661 54.4586C209.632 53.7752 211.843 53.4337 214.292 53.4337C215.068 53.4337 215.994 53.3741 217.069 53.2554C218.144 53.1367 219.13 53.0772 220.026 53.0772C219.907 49.8686 219.697 47.3581 219.399 45.546C219.13 43.704 218.652 42.3225 217.965 41.4017C217.308 40.4808 216.368 40.0202 215.143 40.0202C214.247 40.0202 213.396 40.2281 212.589 40.6441C211.783 41.0601 210.782 41.7136 209.588 42.6049C208.602 43.3179 208.109 43.6744 208.109 43.6744C208.08 43.6744 207.975 43.7339 207.796 43.8526C207.646 43.9418 207.497 43.9713 207.348 43.9418C207.079 43.8822 206.944 43.7485 206.944 43.5407C206.825 43.3624 206.676 42.9614 206.496 42.3375C206.347 41.7136 206.272 41.268 206.272 41.0006C206.272 40.8223 206.452 40.6145 206.81 40.3767C208.333 39.2477 209.617 38.4159 210.663 37.8812C211.738 37.3168 212.649 36.9603 213.396 36.8117C214.172 36.663 215.068 36.5889 216.084 36.5889C219.07 36.5889 221.072 37.5543 222.087 39.4855C223.132 41.3867 223.655 43.9268 223.655 47.1057C223.655 47.9375 223.625 49.0665 223.565 50.4925C223.565 51.3542 223.505 52.6166 223.386 54.2804L223.341 55.3499L223.386 57.9791C223.446 59.1673 223.476 60.0735 223.476 60.6974L223.431 62.0343C223.371 62.7177 223.102 63.0593 222.624 63.0593L222.266 63.0147H220.429C220.31 63.0147 220.19 62.9701 220.071 62.881C219.981 62.7623 219.936 62.6286 219.936 62.4799V62.1234C218.144 62.6286 216.711 62.9851 215.636 63.193C214.56 63.4008 213.246 63.5049 211.693 63.5049ZM211.738 60.9648C214.934 60.9648 217.667 60.43 219.936 59.3605L220.071 55.2162C218.667 55.0975 217.457 55.0379 216.442 55.0379L213.799 55.0825C212.365 55.0825 211.081 55.3648 209.946 55.9292C208.811 56.4639 208.199 57.2215 208.109 58.2019C208.109 59.2714 208.363 59.9994 208.871 60.3855C209.379 60.7716 210.334 60.9648 211.738 60.9648Z" fill="#FFF7EE"/>
<path d="M46.6798 50.3453C44.8406 50.3453 43.1105 49.3441 42.1746 47.7415L35.1774 35.8791L28.1911 47.7415C27.2443 49.3552 25.5141 50.3565 23.675 50.3565C23.1853 50.3565 22.6956 50.29 22.2277 50.1451L7.31914 45.7832V58.2103C7.31914 59.8463 8.40736 61.2706 9.95261 61.6601L33.4798 67.6803C34.037 67.8199 34.6079 67.8896 35.1774 67.8889C35.7423 67.8882 36.3058 67.8189 36.8532 67.6803L60.4023 61.6601C61.9475 61.2594 63.0357 59.8352 63.0357 58.2103V45.7832L48.1271 50.134C47.6591 50.2788 47.1695 50.3453 46.6798 50.3453ZM69.8152 37.86L64.211 26.4204C63.8736 25.7305 63.1445 25.3299 62.3934 25.43L35.1774 28.9799L45.1563 45.9054C45.57 46.6066 46.397 46.9404 47.1695 46.7176L68.7053 40.4304C69.7826 40.1077 70.3048 38.8836 69.8152 37.86ZM6.14388 26.4204L0.539577 37.86C0.0389997 38.8836 0.572225 40.1077 1.63867 40.4193L23.1744 46.7065C23.947 46.9293 24.7741 46.5954 25.1876 45.8943L35.1774 28.9799L7.9503 25.43C7.19944 25.341 6.48121 25.7305 6.14388 26.4204Z" fill="#FFF7EE"/>
<path d="M47.6 56.5184V53.6995C47.6 53.477 47.3935 53.3116 47.1751 53.3593L44.0251 54.0448C43.8645 54.08 43.75 54.2213 43.75 54.385V57.3411C43.75 57.5695 43.967 57.7359 44.1889 57.6781L47.3389 56.8551C47.4929 56.815 47.6 56.6765 47.6 56.5184Z" fill="white" stroke="white" stroke-linejoin="round"/>
<path d="M58.55 54.05V51.6092C58.55 51.3874 58.3439 51.222 58.1259 51.269L55.2261 51.8922C55.0648 51.9267 54.95 52.0684 54.95 52.2323V54.8915C54.95 55.1234 55.174 55.2905 55.398 55.2257L58.298 54.3842C58.4471 54.3411 58.55 54.2046 58.55 54.05Z" fill="white" stroke="white" stroke-linejoin="round"/>
<path d="M4.56944 20.1926L1.59441 27.1556M0.349976 23.1712L8.5944 29.2445M4.56944 25.2408L1.59441 32.2037" stroke="#FFF7EE" stroke-width="0.8" stroke-linecap="round" stroke-linejoin="round"/>
<path d="M7.49978 58.7708L7.34998 45.9554L21.2597 48.8409C25.725 49.9591 26.775 49.611 28.35 47.6962L35 36.5554L35.1624 65.4792C35.1687 66.6135 34.1002 67.4508 32.9931 67.1789L9.62858 61.4424C8.38997 61.1382 7.51462 60.0398 7.49978 58.7708Z" fill="#FFEFDD" stroke="#FFEFDD" stroke-linecap="round"/>
<path d="M13.2999 58.3486V55.8053C13.2999 55.5777 13.5161 55.4112 13.7378 55.4683L16.0378 56.0616C16.1921 56.1013 16.2999 56.2398 16.2999 56.3986V59.0605C16.2999 59.2952 16.0712 59.4626 15.846 59.3927L13.5459 58.681C13.3996 58.6358 13.2999 58.5011 13.2999 58.3486Z" fill="white" stroke="white" stroke-linejoin="round"/>
<path d="M13.2999 53.8098V51.261C13.2999 51.0392 13.5058 50.8739 13.7238 50.9209L16.6238 51.5441C16.7849 51.5785 16.8999 51.7202 16.8999 51.8842V54.5576C16.8999 54.7853 16.6837 54.9517 16.4621 54.8946L13.5621 54.1468C13.4077 54.1068 13.2999 53.9682 13.2999 53.8098Z" fill="white" stroke="white" stroke-linejoin="round"/>
</g>
<defs>
<clipPath id="clip0_217_906">
<rect width="224" height="94" fill="white"/>
</clipPath>
</defs>
</svg>
