<svg width="604" height="140" viewBox="0 0 604 140" fill="none" xmlns="http://www.w3.org/2000/svg">
<path d="M164.264 131.616C162.899 131.787 162.003 131.531 161.576 130.848C161.149 130.08 160.936 128.928 160.936 127.392C160.936 125.515 160.979 123.808 161.064 122.272L161.192 111.52L161.448 96.416C161.96 78.3253 162.216 64.2027 162.216 54.048C162.216 50.976 162.173 49.1413 162.088 48.544C161.917 46.6667 161.832 45.5573 161.832 45.216C161.832 42.9973 162.301 41.888 163.24 41.888C163.667 41.888 164.52 41.9307 165.8 42.016C167.165 42.1013 169.043 42.144 171.432 42.144C172.115 42.144 173.864 42.1013 176.68 42.016C179.496 41.9307 182.44 41.888 185.512 41.888C190.035 41.888 194.344 42.016 198.44 42.272C204.328 42.6133 209.192 45.0027 213.032 49.44C216.957 53.8773 218.92 60.5333 218.92 69.408C218.92 75.2107 217.683 79.8187 215.208 83.232C212.733 86.6453 209.875 89.0347 206.632 90.4C203.389 91.68 200.531 92.32 198.056 92.32C195.752 92.32 191.869 92.576 186.408 93.088C183.251 93.4293 180.691 93.6427 178.728 93.728C178.557 101.579 178.472 106.912 178.472 109.728C178.472 120.821 178.6 126.837 178.856 127.776C179.027 128.629 178.856 129.397 178.344 130.08C177.917 130.677 177.32 131.104 176.552 131.36C175.869 131.531 175.229 131.488 174.632 131.232C174.376 131.147 173.651 131.104 172.456 131.104C169.896 131.104 167.165 131.275 164.264 131.616ZM194.472 83.104C197.629 83.104 200.573 82.1653 203.304 80.288C206.035 78.4107 207.4 75.04 207.4 70.176C207.4 64.9707 206.333 61.0453 204.2 58.4C202.067 55.6693 198.952 53.92 194.856 53.152C188.456 51.872 183.421 51.36 179.752 51.616C179.752 54.0053 179.709 55.7973 179.624 56.992C179.453 61.7707 179.24 65.184 178.984 67.232C178.643 70.2187 178.557 73.5893 178.728 77.344L178.984 82.336L185 82.72C187.304 82.976 190.461 83.104 194.472 83.104ZM251.28 134.816C238.48 134.816 229.947 130.507 225.68 121.888C221.413 113.184 219.28 103.883 219.28 93.984C219.28 84.4267 220.731 76.7893 223.632 71.072C226.533 65.2693 230.032 61.216 234.128 58.912C238.309 56.608 242.491 55.456 246.672 55.456C254.523 55.456 260.411 57.7173 264.336 62.24C268.347 66.7627 270.907 72.0533 272.016 78.112C273.211 84.0853 273.808 90.5707 273.808 97.568C273.808 98.1653 273.381 98.5493 272.528 98.72C269.712 98.72 263.227 99.1893 253.072 100.128C251.451 100.299 249.488 100.512 247.184 100.768C244.88 100.939 242.32 101.109 239.504 101.28C240.272 109.557 244.752 113.696 252.944 113.696C255.675 113.696 257.765 113.44 259.216 112.928C260.752 112.416 263.184 111.349 266.512 109.728C267.109 109.728 267.621 110.069 268.048 110.752C268.56 111.435 269.243 112.843 270.096 114.976C270.352 115.403 270.651 116.213 270.992 117.408C271.419 118.603 271.803 119.499 272.144 120.096C273.765 124.192 274.533 126.325 274.448 126.496C274.277 126.837 273.808 127.307 273.04 127.904C271.248 129.696 268.347 131.275 264.336 132.64C260.411 134.091 256.059 134.816 251.28 134.816ZM254.352 92.576C253.669 82.848 251.323 77.984 247.312 77.984C244.923 77.984 243.088 79.392 241.808 82.208C240.528 84.9387 239.76 88.8213 239.504 93.856L254.352 92.576ZM286.278 132C284.998 132 284.358 131.488 284.358 130.464V106.016V95.264L285.254 58.912C285.254 57.9733 285.467 57.4613 285.894 57.376C286.235 57.2053 287.217 57.12 288.838 57.12C292.081 57.12 293.873 57.2053 294.214 57.376C294.47 57.376 294.683 57.5467 294.854 57.888C295.11 58.144 295.238 58.3573 295.238 58.528L295.11 63.008L300.742 60.704C309.19 57.0347 314.054 55.2 315.334 55.2H315.462C316.059 55.2 316.529 55.968 316.87 57.504C316.87 59.3813 316.913 60.832 316.998 61.856C316.998 62.7947 317.083 63.6907 317.254 64.544L317.382 67.36V67.616C317.382 67.9573 317.254 68.2987 316.998 68.64C316.742 68.9813 316.529 69.1947 316.358 69.28C313.627 69.9627 310.683 70.5173 307.526 70.944C304.454 71.2853 302.662 71.4987 302.15 71.584L294.854 72.608V90.656V96.288L295.11 102.944C295.11 105.419 295.067 107.509 294.982 109.216C294.726 112.032 294.598 115.275 294.598 118.944V123.296C294.598 127.563 294.427 130.208 294.086 131.232C294.086 131.829 293.403 132.128 292.038 132.128L286.278 132ZM335.44 51.36C333.136 51.36 331.003 50.464 329.04 48.672C327.077 46.88 326.096 44.6613 326.096 42.016C326.096 39.712 326.949 37.664 328.656 35.872C330.363 33.9947 332.411 33.056 334.8 33.056C337.616 33.056 340.133 33.7813 342.352 35.232C344.571 36.6827 345.68 38.688 345.68 41.248C345.68 43.3813 345.125 45.216 344.016 46.752C342.907 48.288 341.541 49.44 339.92 50.208C338.384 50.976 336.891 51.36 335.44 51.36ZM323.92 133.024C322.725 133.109 321.957 132.896 321.616 132.384C321.36 131.872 321.189 131.019 321.104 129.824C320.933 129.227 321.019 127.861 321.36 125.728C321.36 125.216 321.403 124.491 321.488 123.552C321.659 122.528 321.744 121.632 321.744 120.864C321.744 120.267 322.043 115.488 322.64 106.528C322.725 104.139 322.853 102.005 323.024 100.128C323.195 98.2507 323.28 96.8 323.28 95.776L323.536 85.408L323.792 75.808L324.048 70.048L324.304 66.336V61.856C324.304 60.32 324.517 59.2533 324.944 58.656C325.371 58.0587 325.968 57.76 326.736 57.76C327.077 57.76 327.376 57.8027 327.632 57.888C328.4 57.9733 329.253 58.016 330.192 58.016C331.216 57.9307 332.155 57.888 333.008 57.888H337.104C339.835 57.888 341.627 57.9307 342.48 58.016C343.419 58.1013 344.059 58.272 344.4 58.528C344.827 58.784 345.04 59.168 345.04 59.68C345.04 60.1067 344.997 60.5333 344.912 60.96C344.827 61.3013 344.741 61.6427 344.656 61.984C343.803 67.36 343.333 73.504 343.248 80.416C343.163 82.2933 343.12 85.1093 343.12 88.864L343.248 101.664C343.333 102.688 343.376 103.755 343.376 104.864L343.504 109.088C343.675 112.672 343.76 115.403 343.76 117.28C343.76 118.56 343.717 119.371 343.632 119.712C343.547 119.968 343.504 120.779 343.504 122.144L343.632 127.776C343.717 128.715 343.76 129.824 343.76 131.104C343.845 132.555 342.651 133.195 340.176 133.024H323.92ZM375.212 131.744C374.785 131.744 373.804 131.659 372.268 131.488C371.5 131.403 369.921 131.36 367.532 131.36L358.188 131.488C357.249 131.403 356.652 131.232 356.396 130.976C356.225 130.72 356.14 130.379 356.14 129.952C356.14 129.44 356.14 129.099 356.14 128.928L356.012 122.144C356.012 120.949 355.969 119.925 355.884 119.072L355.756 110.368C355.756 109.088 355.799 107.808 355.884 106.528C356.055 105.163 356.14 104.181 356.14 103.584C356.396 101.621 356.524 99.4027 356.524 96.928L356.396 82.336L356.524 73.888C356.695 69.9627 356.78 66.976 356.78 64.928C356.78 60.1493 356.695 54.2613 356.524 47.264C356.524 45.728 356.695 44.704 357.036 44.192C357.463 43.68 358.06 43.424 358.828 43.424C359.34 43.424 359.852 43.4667 360.364 43.552C360.961 43.6373 361.644 43.68 362.412 43.68L372.14 43.424L380.332 43.168C381.356 43.168 382.508 43.1253 383.788 43.04C385.068 42.9547 386.348 42.8693 387.628 42.784C390.529 42.528 392.919 42.4 394.796 42.4L405.548 42.528C407.511 42.528 408.492 43.168 408.492 44.448V50.848C408.492 51.616 408.321 52.0853 407.98 52.256C407.724 52.3413 407.127 52.384 406.188 52.384C405.079 52.384 404.097 52.3413 403.244 52.256L395.052 52.128C391.809 52.128 388.652 52.2987 385.58 52.64L379.308 53.024L378.924 55.328C378.753 57.2053 378.668 58.6987 378.668 59.808L378.54 71.2L378.412 77.728V80.8C380.204 80.8 381.527 80.7573 382.38 80.672L388.524 80.544L393.644 80.416C394.839 80.3307 396.503 80.288 398.636 80.288C400.001 80.288 400.897 80.4587 401.324 80.8C401.836 81.1413 402.092 81.696 402.092 82.464L401.964 86.688C401.964 87.3707 401.751 87.84 401.324 88.096C400.983 88.352 400.215 88.48 399.02 88.48C397.484 88.48 396.204 88.4373 395.18 88.352L390.06 88.224H378.156C378.156 90.4427 378.199 92.064 378.284 93.088L378.412 101.152L378.284 107.424C378.113 110.155 378.028 112.245 378.028 113.696L378.156 128.8C378.156 129.909 377.9 130.677 377.388 131.104C376.961 131.531 376.236 131.744 375.212 131.744ZM439.1 134.816C426.3 134.816 417.767 130.507 413.5 121.888C409.233 113.184 407.1 103.883 407.1 93.984C407.1 84.4267 408.551 76.7893 411.452 71.072C414.353 65.2693 417.852 61.216 421.948 58.912C426.129 56.608 430.311 55.456 434.492 55.456C442.343 55.456 448.231 57.7173 452.156 62.24C456.167 66.7627 458.727 72.0533 459.836 78.112C461.031 84.0853 461.628 90.5707 461.628 97.568C461.628 98.1653 461.201 98.5493 460.348 98.72C457.532 98.72 451.047 99.1893 440.892 100.128C439.271 100.299 437.308 100.512 435.004 100.768C432.7 100.939 430.14 101.109 427.324 101.28C428.092 109.557 432.572 113.696 440.764 113.696C443.495 113.696 445.585 113.44 447.036 112.928C448.572 112.416 451.004 111.349 454.332 109.728C454.929 109.728 455.441 110.069 455.868 110.752C456.38 111.435 457.063 112.843 457.916 114.976C458.172 115.403 458.471 116.213 458.812 117.408C459.239 118.603 459.623 119.499 459.964 120.096C461.585 124.192 462.353 126.325 462.268 126.496C462.097 126.837 461.628 127.307 460.86 127.904C459.068 129.696 456.167 131.275 452.156 132.64C448.231 134.091 443.879 134.816 439.1 134.816ZM442.172 92.576C441.489 82.848 439.143 77.984 435.132 77.984C432.743 77.984 430.908 79.392 429.628 82.208C428.348 84.9387 427.58 88.8213 427.324 93.856L442.172 92.576ZM482.93 51.36C480.626 51.36 478.493 50.464 476.53 48.672C474.567 46.88 473.586 44.6613 473.586 42.016C473.586 39.712 474.439 37.664 476.146 35.872C477.853 33.9947 479.901 33.056 482.29 33.056C485.106 33.056 487.623 33.7813 489.842 35.232C492.061 36.6827 493.17 38.688 493.17 41.248C493.17 43.3813 492.615 45.216 491.506 46.752C490.397 48.288 489.031 49.44 487.41 50.208C485.874 50.976 484.381 51.36 482.93 51.36ZM471.41 133.024C470.215 133.109 469.447 132.896 469.106 132.384C468.85 131.872 468.679 131.019 468.594 129.824C468.423 129.227 468.509 127.861 468.85 125.728C468.85 125.216 468.893 124.491 468.978 123.552C469.149 122.528 469.234 121.632 469.234 120.864C469.234 120.267 469.533 115.488 470.13 106.528C470.215 104.139 470.343 102.005 470.514 100.128C470.685 98.2507 470.77 96.8 470.77 95.776L471.026 85.408L471.282 75.808L471.538 70.048L471.794 66.336V61.856C471.794 60.32 472.007 59.2533 472.434 58.656C472.861 58.0587 473.458 57.76 474.226 57.76C474.567 57.76 474.866 57.8027 475.122 57.888C475.89 57.9733 476.743 58.016 477.682 58.016C478.706 57.9307 479.645 57.888 480.498 57.888H484.594C487.325 57.888 489.117 57.9307 489.97 58.016C490.909 58.1013 491.549 58.272 491.89 58.528C492.317 58.784 492.53 59.168 492.53 59.68C492.53 60.1067 492.487 60.5333 492.402 60.96C492.317 61.3013 492.231 61.6427 492.146 61.984C491.293 67.36 490.823 73.504 490.738 80.416C490.653 82.2933 490.61 85.1093 490.61 88.864L490.738 101.664C490.823 102.688 490.866 103.755 490.866 104.864L490.994 109.088C491.165 112.672 491.25 115.403 491.25 117.28C491.25 118.56 491.207 119.371 491.122 119.712C491.037 119.968 490.994 120.779 490.994 122.144L491.122 127.776C491.207 128.715 491.25 129.824 491.25 131.104C491.335 132.555 490.141 133.195 487.666 133.024H471.41ZM505.678 132C504.398 132 503.758 131.488 503.758 130.464V106.016V95.264L504.654 58.912C504.654 57.9733 504.867 57.4613 505.294 57.376C505.635 57.2053 506.617 57.12 508.238 57.12C511.481 57.12 513.273 57.2053 513.614 57.376C513.87 57.376 514.083 57.5467 514.254 57.888C514.51 58.144 514.638 58.3573 514.638 58.528L514.51 63.008L520.142 60.704C528.59 57.0347 533.454 55.2 534.734 55.2H534.862C535.459 55.2 535.929 55.968 536.27 57.504C536.27 59.3813 536.313 60.832 536.398 61.856C536.398 62.7947 536.483 63.6907 536.654 64.544L536.782 67.36V67.616C536.782 67.9573 536.654 68.2987 536.398 68.64C536.142 68.9813 535.929 69.1947 535.758 69.28C533.027 69.9627 530.083 70.5173 526.926 70.944C523.854 71.2853 522.062 71.4987 521.55 71.584L514.254 72.608V90.656V96.288L514.51 102.944C514.51 105.419 514.467 107.509 514.382 109.216C514.126 112.032 513.998 115.275 513.998 118.944V123.296C513.998 127.563 513.827 130.208 513.486 131.232C513.486 131.829 512.803 132.128 511.438 132.128L505.678 132ZM557.838 133.408C551.609 133.408 546.617 132.171 542.862 129.696C539.107 127.221 537.23 122.827 537.23 116.512C537.657 112.416 540.686 109.387 546.318 107.424C551.95 105.461 558.265 104.48 565.262 104.48C567.481 104.48 570.126 104.309 573.198 103.968C576.27 103.627 579.086 103.456 581.646 103.456C581.305 94.24 580.707 87.0293 579.854 81.824C579.086 76.5333 577.721 72.5653 575.758 69.92C573.881 67.2747 571.193 65.952 567.694 65.952C565.134 65.952 562.702 66.5493 560.398 67.744C558.094 68.9387 555.235 70.816 551.822 73.376C549.006 75.424 547.598 76.448 547.598 76.448C547.513 76.448 547.214 76.6187 546.702 76.96C546.275 77.216 545.849 77.3013 545.422 77.216C544.654 77.0453 544.27 76.6613 544.27 76.064C543.929 75.552 543.502 74.4 542.99 72.608C542.563 70.816 542.35 69.536 542.35 68.768C542.35 68.256 542.862 67.6587 543.886 66.976C548.238 63.7333 551.907 61.344 554.894 59.808C557.966 58.1867 560.569 57.1627 562.702 56.736C564.921 56.3093 567.481 56.096 570.382 56.096C578.915 56.096 584.633 58.8693 587.534 64.416C590.521 69.8773 592.014 77.1733 592.014 86.304C592.014 88.6933 591.929 91.936 591.758 96.032C591.758 98.5067 591.587 102.133 591.246 106.912L591.118 109.984L591.246 117.536C591.417 120.949 591.502 123.552 591.502 125.344L591.374 129.184C591.203 131.147 590.435 132.128 589.07 132.128L588.046 132H582.798C582.457 132 582.115 131.872 581.774 131.616C581.518 131.275 581.39 130.891 581.39 130.464V129.44C576.27 130.891 572.174 131.915 569.102 132.512C566.03 133.109 562.275 133.408 557.838 133.408ZM557.966 126.112C567.097 126.112 574.905 124.576 581.39 121.504L581.774 109.6C577.763 109.259 574.307 109.088 571.406 109.088L563.854 109.216C559.758 109.216 556.089 110.027 552.846 111.648C549.603 113.184 547.854 115.36 547.598 118.176C547.598 121.248 548.323 123.339 549.774 124.448C551.225 125.557 553.955 126.112 557.966 126.112Z" fill="#996D51"/>
<path d="M50.1416 61.8456H38.6094C39.1308 60.789 39.9488 59.8971 40.969 59.2729C41.9892 58.6486 43.1701 58.3174 44.3755 58.3174C45.5809 58.3174 46.7618 58.6486 47.782 59.2729C48.8022 59.8971 49.6202 60.789 50.1416 61.8456ZM68.5928 58.3058C68.5964 56.8522 68.7065 55.4007 68.9223 53.9624C68.027 54.1026 67.1726 54.4265 66.4159 54.9125C65.6593 55.3985 65.0176 56.0355 64.5336 56.7811C64.0497 57.5268 63.7344 58.364 63.6089 59.2372C63.4833 60.1104 63.5503 60.9995 63.8055 61.8456H68.8169C68.6753 60.6707 68.6049 59.4888 68.606 58.3058H68.5928ZM42.6983 35.3961C38.4149 31.2319 32.6623 26.8306 27.5881 26.8306H27.1663L27.4333 31.956C29.8748 31.8406 33.8122 34.1663 38.2503 38.3623C38.5293 38.625 38.8028 38.8888 39.0707 39.1537C39.7987 39.0009 40.5402 38.9162 41.2848 38.9007C41.5544 37.6619 42.0367 36.476 42.7114 35.3929L42.6983 35.3961ZM49.3738 30.3541C50.0827 29.5445 50.7177 28.6763 51.2715 27.7595C52.1101 26.3764 52.7645 24.8955 53.2191 23.3521C53.6721 21.8185 53.9212 20.2348 53.9604 18.6397C53.9951 17.1557 53.8413 15.6731 53.5024 14.2257C53.3527 13.5953 53.1689 12.973 52.9518 12.3615C52.772 11.8558 52.5676 11.3587 52.3393 10.8718C52.1801 10.5345 52.0074 10.2033 51.8218 9.87898C51.7594 9.76367 51.6934 9.67073 51.6572 9.61001L51.5978 9.5168L51.4992 9.56474C51.4331 9.59696 51.331 9.64516 51.2156 9.70907C50.8782 9.88928 50.5484 10.0827 50.2271 10.2888C49.7691 10.5842 49.3291 10.9052 48.9092 11.2499C48.395 11.66 47.9033 12.0962 47.4363 12.5567C46.3682 13.6162 45.4386 14.7997 44.6686 16.0805C43.8425 17.4591 43.2014 18.935 42.761 20.4719C42.3078 22.0132 42.0575 23.6041 42.0162 25.2066C41.9838 26.6906 42.1376 28.1729 42.4742 29.6207C42.7452 30.7692 43.1337 31.8885 43.634 32.9618C43.7627 33.2436 43.8879 33.4838 44 33.6856C45.4428 32.1099 47.3079 30.9553 49.3869 30.3509L49.3738 30.3541ZM143.169 18.6624C143.106 18.6269 143.007 18.5692 142.889 18.5084C142.552 18.3322 142.207 18.1719 141.854 18.028C141.416 17.8485 140.895 17.6499 140.309 17.4674C139.675 17.2712 139.03 17.1076 138.378 16.9774C136.881 16.6837 135.353 16.5707 133.828 16.6411C132.188 16.717 130.565 16.9968 128.998 17.4738C127.429 17.946 125.928 18.6091 124.53 19.4472C123.231 20.2286 122.035 21.1612 120.968 22.2242L120.82 22.3782C122.336 24.1223 123.508 26.1237 124.276 28.2817C125.303 28.4018 126.339 28.4393 127.373 28.3938C129.014 28.3185 130.638 28.0419 132.207 27.5707C133.777 27.1054 135.28 26.4465 136.678 25.6101C137.978 24.8305 139.175 23.8978 140.24 22.833C140.705 22.368 141.145 21.8794 141.558 21.3691C141.937 20.8951 142.256 20.453 142.51 20.0557C142.764 19.6584 142.958 19.3319 143.083 19.0946C143.149 18.9793 143.195 18.877 143.225 18.8128L143.274 18.7135L143.169 18.6624ZM119.709 1.07003C119.591 0.618102 119.475 0.192275 119.439 0L114.24 0.928884C114.309 1.29745 114.428 1.73926 114.589 2.34804C115.36 5.25027 117.136 11.9386 114.995 17.8552C116.614 18.6742 118.105 19.714 119.423 20.943C122.925 13.2393 120.658 4.68969 119.696 1.06976L119.709 1.07003ZM125.317 58.3058C125.324 51.8703 122.769 45.6819 118.187 41.0371C119.245 39.2547 119.868 37.2596 120.006 35.2061C120.145 33.1525 119.796 31.0954 118.986 29.1939C118.177 27.2924 116.928 25.5973 115.337 24.2397C113.746 22.8822 111.856 21.8984 109.811 21.3646C107.767 20.8308 105.624 20.7612 103.547 21.1612C101.471 21.5611 99.5166 22.4199 97.836 23.6712C96.1554 24.9225 94.7932 26.5328 93.8549 28.3776C92.9166 30.2223 92.4271 32.2521 92.4244 34.3101C86.4729 35.9876 81.3451 39.6992 77.9855 44.7613C74.6259 49.8234 73.2608 55.8952 74.1414 61.8584H125.047C125.223 60.6819 125.313 59.4947 125.317 58.3058ZM58.2831 60.1029C58.2822 57.3497 59.3156 54.691 61.1892 52.6266C60.5758 51.4946 59.6187 50.5738 58.448 49.9894C57.2773 49.405 55.9499 49.1853 54.6462 49.3603C53.3426 49.5353 52.126 50.0965 51.162 50.9675C50.198 51.8384 49.5334 52.9769 49.2585 54.2281C50.8391 54.94 52.2368 55.9852 53.3499 57.288C54.463 58.5907 55.2636 60.1181 55.6935 61.7593C56.6092 61.7321 57.5081 61.5135 58.3292 61.1183C58.2987 60.7807 58.2833 60.4419 58.2831 60.1029ZM36.5369 56.1181C35.7358 54.6873 34.3898 53.6187 32.7876 53.1414C31.1854 52.6642 29.4547 52.8164 27.9666 53.5653C26.4785 54.3143 25.3516 55.6003 24.8275 57.1477C24.3034 58.695 24.4238 60.3804 25.1631 61.8424H33.0214C33.5772 59.6359 34.8006 57.6419 36.5336 56.1181H36.5369ZM58.4083 38.3591C57.8034 37.2265 56.855 36.302 55.6915 35.711C54.5281 35.12 53.2059 34.8909 51.9041 35.0549C50.6023 35.2189 49.3838 35.768 48.4137 36.6278C47.4437 37.4876 46.7689 38.6165 46.4809 39.8616C48.7562 40.8997 50.6293 42.6196 51.8251 44.7688C52.8375 44.4382 53.8921 44.2453 54.9588 44.1955C55.4747 41.9563 56.6761 39.9215 58.4048 38.3591H58.4083ZM66.3521 40.4413C64.93 40.4387 63.5475 40.8962 62.4224 41.7418C61.2973 42.5874 60.4937 43.773 60.1382 45.1116C62.3559 46.0435 64.2243 47.6173 65.489 49.6186C66.9064 49.0428 68.4274 48.7467 69.9635 48.7475H70.1975C70.7376 47.1704 71.4132 45.6402 72.2171 44.1731C71.7183 43.0643 70.8979 42.1209 69.8564 41.4581C68.8148 40.7954 67.5969 40.442 66.3521 40.4413ZM47.3079 47.4724C46.7334 46.3403 45.8184 45.4049 44.6842 44.7904C43.5499 44.1759 42.2503 43.9113 40.9578 44.032C39.6653 44.1526 38.4411 44.6526 37.4478 45.4657C36.4546 46.2787 35.7392 47.3663 35.3968 48.584C37.8423 49.587 39.8665 51.3652 41.1399 53.6292C42.1049 53.3594 43.1016 53.2118 44.1054 53.1903C44.5753 51.0212 45.6886 49.0331 47.3079 47.4724Z" fill="#EA6017"/>
<path d="M95.6381 104.03C91.8814 104.03 88.347 101.988 86.4353 98.721L72.1421 74.5344L57.8711 98.721C55.9372 102.011 52.4028 104.053 48.6461 104.053C47.6458 104.053 46.6455 103.917 45.6896 103.622L15.2359 94.7277V120.066C15.2359 123.401 17.4588 126.306 20.6154 127.1L68.6744 139.375C69.8126 139.659 70.9788 139.801 72.1421 139.8C73.2961 139.799 74.4473 139.657 75.5653 139.375L123.669 127.1C126.825 126.283 129.048 123.379 129.048 120.066V94.7277L98.5945 103.599C97.6387 103.894 96.6384 104.03 95.6381 104.03ZM142.897 78.5731L131.449 55.2487C130.76 53.8419 129.271 53.0251 127.737 53.2293L72.1421 60.4671L92.526 94.9773C93.3707 96.4067 95.0602 97.0874 96.6384 96.6336L140.63 83.8143C142.83 83.1563 143.897 80.6605 142.897 78.5731ZM12.8352 55.2487L1.3873 78.5731C0.364769 80.6605 1.45399 83.1563 3.63243 83.7916L47.6235 96.6109C49.2018 97.0647 50.8912 96.384 51.7359 94.9546L72.1421 60.4671L16.5252 53.2293C14.9914 53.0478 13.5243 53.8419 12.8352 55.2487Z" fill="#996D51"/>
<path d="M98.2493 116.558V111.345C98.2493 110.706 97.6591 110.231 97.0355 110.368L91.173 111.651C90.7139 111.751 90.3868 112.158 90.3868 112.628V118.098C90.3868 118.753 91.0068 119.231 91.6408 119.065L97.5033 117.525C97.9428 117.41 98.2493 117.012 98.2493 116.558Z" fill="white" stroke="white" stroke-linejoin="round"/>
<path d="M120.611 111.496V107.053C120.611 106.415 120.023 105.941 119.4 106.075L114.048 107.231C113.588 107.331 113.259 107.738 113.259 108.209V113.057C113.259 113.724 113.899 114.204 114.539 114.017L119.891 112.456C120.318 112.332 120.611 111.941 120.611 111.496Z" fill="white" stroke="white" stroke-linejoin="round"/>
<path d="M10.3719 42.1987L6.3322 51.7038M6.3322 51.7038L4.29629 56.4942M6.3322 51.7038L1.75488 48.314M6.3322 51.7038L9.68252 54.185M9.68252 54.185L18.5918 60.7828M9.68252 54.185L10.3719 52.5629M9.68252 54.185L4.29629 66.8584" stroke="#996D51" stroke-width="2" stroke-linecap="round" stroke-linejoin="round"/>
<path d="M15.2275 122.811V95.262L44.0053 100.951C50.7343 102.45 53.5797 104.541 57.9098 98.9735L72.1373 75.4673L72.8275 133.472C72.8659 136.701 69.8794 139.119 66.7292 138.41L19.1289 127.688C16.8479 127.175 15.2275 125.149 15.2275 122.811Z" fill="#8D6145"/>
<path d="M28.2178 120.062V116.303C28.2178 115.664 28.8102 115.188 29.4347 115.327L33.6205 116.257C34.0781 116.359 34.4036 116.765 34.4036 117.233V121.178C34.4036 121.835 33.7808 122.314 33.146 122.144L28.9601 121.028C28.5224 120.911 28.2178 120.515 28.2178 120.062Z" fill="white" stroke="white" stroke-linejoin="round"/>
<path d="M28.2178 112.111V106.436C28.2178 105.787 28.827 105.31 29.4575 105.465L34.8805 106.804C35.327 106.915 35.6408 107.315 35.6408 107.775V113.717C35.6408 114.386 34.9976 114.866 34.3567 114.676L28.9337 113.069C28.5091 112.944 28.2178 112.553 28.2178 112.111Z" fill="white" stroke="white" stroke-linejoin="round"/>
</svg>
